<?xml version="1.0" encoding="UTF-8"?>
<svg id="Ebene_1" data-name="Ebene 1" xmlns="http://www.w3.org/2000/svg" width="218.1" height="119.85" viewBox="0 0 218.1 119.85">
  <defs>
    <style>
      .cls-1 {
        stroke-width: 0px;
      }
    </style>
  </defs>
  <g>
    <path class="cls-1" d="m33.97.07h-6.72c-1.23,0-1.98.42-1.98,1.98v27.58c0,4.27-2.85,6.72-7.34,6.72s-7.27-2.45-7.27-6.72V2.05c0-1.56-.75-1.98-1.96-1.98H1.98C.75.07,0,.49,0,2.05v29.06c0,10.66,9.86,14.67,17.93,14.67s18-4.01,18-14.67V2.05c0-1.56-.74-1.98-1.96-1.98Zm48.08,42.53l-9.58-13.92c4.22-1.44,9.45-6.39,9.45-13.52,0-4.36-1.44-8.23-3.94-10.68-2.85-2.84-6.13-4.34-13.52-4.34h-17.12c-1.56,0-1.91.75-1.91,1.98v40.67c0,1.58.68,1.98,1.91,1.98h6.72c1.23,0,1.98-.4,1.98-1.98V9.65h9.03c3.52,0,6.23,2.24,6.23,5.78,0,3.19-3.12,5.5-6.44,5.5h-1.37c-1.56,0-1.96.75-1.96,1.98v5.43c0,1.91.14,2.64.74,3.47l7.34,10.94c.96,1.42,1.77,2.03,3.4,2.03h8.02c1.3,0,1.63-1.23,1.02-2.17Zm40.5-20.99c.6-.26,4.95-2.45,4.95-9.3,0-6.39-4.76-12.31-15.83-12.31h-19.01c-1.58,0-1.98.75-1.98,1.98v40.81c0,1.23.4,1.98,1.98,1.98h19.96c9.44,0,16.16-4.41,16.16-13.04,0-7.34-5.69-9.91-6.23-10.12Zm-9.79,13.52h-11.42V9.58h10.33c3.54,0,5.64.75,5.64,3.82,0,2.64-1.7,4.06-5.64,4.06h-.89c-1.56,0-1.96.75-1.96,1.98v5.16c0,1.23.4,1.96,1.96,1.96h1.58c3.26,0,5.64.96,5.64,4.15s-1.91,4.41-5.23,4.41Zm63.03,7.74l-15-40.67c-.61-1.44-1.3-2.12-2.78-2.12h-6.53c-1.49,0-2.24.68-2.78,2.12l-15.07,40.67c-.33.82-.33,1.91,1.16,1.91h7.13c1.51,0,2.05-.4,2.59-2.03l1.89-5.37h16.65l1.89,5.37c.54,1.63,1.09,2.03,2.59,2.03h7.13c1.49,0,1.49-1.09,1.16-1.91Zm-26.16-15l5.09-15,5.09,15h-10.19ZM216.12.07h-6.51c-1.23,0-1.98.42-1.98,1.98v23.57l-14.39-23.23c-.88-1.35-1.37-2.31-3.06-2.31h-6.37c-1.56,0-1.98.75-1.98,1.98v40.74c0,1.58.75,1.98,1.98,1.98h6.72c1.23,0,1.96-.4,1.96-1.98v-23.64l14.41,23.3c.88,1.37,1.35,2.31,3.05,2.31h6.18c1.58,0,1.98-.75,1.98-1.98V2.05c0-1.56-.75-1.98-1.98-1.98Z"/>
    <path class="cls-1" d="m18.05,65.75c-2.03-.8-9.45-1.91-9.45-5,0-2.27,2.78-2.94,4.44-2.94,1.52,0,3.34.46,4.3,1.37.61.61.87,1.01,1.06,1.52.26.67.41,1.37,1.37,1.37h4.97c1.16,0,1.47-.2,1.47-1.42,0-6.67-7.03-9.61-13.45-9.61-6.33.26-12.29,3.5-12.29,10.07s4.69,8.43,9.79,10.05c4.3,1.37,8.81,1.42,8.81,4.25s-2.22,3.45-4.95,3.45c-1.88,0-3.96-.46-4.97-1.67-.65-.77-.9-1.42-.96-2.08-.1-1.26-.67-1.42-1.83-1.42H1.47c-1.16,0-1.47.26-1.47,1.42,0,7.08,7.29,10.72,13.6,10.72,7.78,0,13.45-3.43,13.45-10.61s-5.36-8.34-8.99-9.45Zm39.78-13.94h-5c-.9,0-1.47.29-1.47,1.47v20.51c0,3.19-2.12,5.02-5.46,5.02s-5.41-1.83-5.41-5.02v-20.51c0-1.18-.56-1.47-1.47-1.47h-5c-.9,0-1.47.29-1.47,1.47v21.64c0,7.93,7.34,10.9,13.34,10.9s13.4-2.97,13.4-10.9v-21.64c0-1.18-.55-1.47-1.47-1.47Zm35.8,31.64l-7.13-10.36c3.14-1.06,7.03-4.76,7.03-10.07,0-3.23-1.06-6.11-2.94-7.93-2.12-2.12-4.56-3.23-10.07-3.23h-12.73c-1.16,0-1.42.55-1.42,1.45v30.29c0,1.16.51,1.47,1.42,1.47h5c.9,0,1.47-.31,1.47-1.47v-24.67h6.72c2.63,0,4.66,1.67,4.66,4.3,0,2.37-2.34,4.1-4.81,4.1h-1.01c-1.16,0-1.47.56-1.47,1.47v4.04c0,1.42.1,1.98.56,2.58l5.46,8.14c.7,1.06,1.31,1.52,2.53,1.52h5.96c.97,0,1.21-.9.77-1.62Zm29.62-31.64h-21.74c-1.16,0-1.47.55-1.47,1.47v30.32c0,.9.31,1.47,1.47,1.47h5c1.16,0,1.47-.2,1.47-1.52v-11.83h13.14c1.18,0,1.47-.56,1.47-1.47v-3.99c0-.9-.29-1.47-1.47-1.47h-13.14v-5.92h15.27c1.16,0,1.47-.55,1.47-1.47v-4.13c0-.92-.31-1.47-1.47-1.47Zm32.81,31.84l-11.18-30.29c-.46-1.06-.96-1.55-2.08-1.55h-4.85c-1.11,0-1.67.49-2.06,1.55l-11.23,30.29c-.26.61-.26,1.42.85,1.42h5.31c1.11,0,1.52-.31,1.93-1.52l1.42-3.99h12.39l1.42,3.99c.39,1.21.8,1.52,1.91,1.52h5.31c1.11,0,1.11-.8.87-1.42Zm-19.47-11.18l3.79-11.16,3.79,11.16h-7.58Zm49.59,2.73c0-1.21-.39-1.71-1.52-1.71h-4.95c-1.11,0-1.21.8-1.37,1.81-.41,2.42-2.58,3.45-5.31,3.45-3.33,0-5.61-1.83-5.61-5.07v-10.51c0-3.17,2.29-5.05,5.61-5.05,2.73,0,4.15.75,5.2,2.42.41.61.46,1.57,1.52,1.57h4.85c1.18,0,1.57-.26,1.57-1.47-.65-6.42-6.88-9.61-13.14-9.61s-13.55,3.5-13.55,11.43v11.93c0,7.93,7.54,11.42,13.55,11.42s13.14-4.1,13.14-10.61Zm30.44,2.78h-16.13v-6.67h13.55c1.16,0,1.47-.55,1.47-1.47v-3.94c0-.9-.31-1.47-1.47-1.47h-13.55v-5.51h15.26c1.18,0,1.47-.55,1.47-1.47v-4.18c0-.92-.29-1.47-1.47-1.47h-21.77c-1.18,0-1.47.55-1.47,1.47v30.32c0,.9.29,1.47,1.47,1.47h22.64c1.16,0,1.47-.56,1.47-1.47v-4.15c0-.9-.31-1.47-1.47-1.47Z"/>
  </g>
  <path class="cls-1" d="m2.72,119.69c-.4,0-.75-.15-1.04-.44-.29-.27-.44-.62-.44-1.04h0v-20.21c0-.42.15-.77.44-1.07.29-.31.64-.46,1.04-.46h0c.42,0,.77.15,1.07.46.31.29.46.65.46,1.07h0v8.71h12.4v-8.71c0-.42.15-.77.44-1.07.29-.31.64-.46,1.04-.46h0c.42,0,.77.15,1.07.46.31.29.46.65.46,1.07h0v20.21c0,.42-.15.76-.46,1.04-.29.29-.65.44-1.07.44h0c-.4,0-.75-.15-1.04-.44-.29-.27-.44-.62-.44-1.04h0v-8.71H4.25v8.71c0,.42-.15.76-.46,1.04-.29.29-.65.44-1.07.44h0Zm24.75-.16c-.4,0-.75-.15-1.04-.44-.29-.27-.44-.62-.44-1.04h0v-19.88c0-.42.15-.77.44-1.07.29-.31.64-.46,1.04-.46h13.16c.38,0,.71.14.98.41.27.27.41.61.41,1.01h0c0,.4-.14.73-.41.98s-.6.38-.98.38h-11.64v7.27h10.43c.4,0,.74.14,1.01.41s.41.6.41.98h0c0,.4-.14.73-.41.98-.27.27-.61.41-1.01.41h-10.43v7.27h11.64c.38,0,.71.14.98.41.27.27.41.61.41,1.01h0c0,.38-.14.71-.41.98-.27.25-.6.38-.98.38h-13.16Zm19.39.16c-.44,0-.79-.15-1.07-.44-.27-.27-.41-.62-.41-1.04h0c0-.18.05-.4.16-.66h0l8.36-19.72c.16-.4.41-.73.74-.98.31-.25.69-.38,1.15-.38h.33c.46,0,.85.13,1.17.38.31.25.56.58.74.98h0l8.36,19.72c.11.25.16.47.16.66h0c0,.42-.14.76-.41,1.04-.27.29-.63.44-1.07.44h0c-.31,0-.59-.08-.85-.25-.25-.16-.45-.39-.57-.68h0l-2.13-5.11h-11.14l-2.13,5.11c-.13.29-.32.52-.57.68-.25.16-.53.25-.82.25h0Zm9.1-19.39l-4.42,10.65h8.85l-4.42-10.65Zm20.16,19.39c-.42,0-.76-.15-1.04-.44-.29-.27-.44-.62-.44-1.04h0v-18.79h-6.69c-.38,0-.71-.13-.98-.38-.25-.25-.38-.58-.38-.98h0c0-.4.13-.74.38-1.01.27-.27.6-.41.98-.41h16.33c.4,0,.74.14,1.01.41.27.27.41.61.41,1.01h0c0,.4-.14.73-.41.98-.27.25-.61.38-1.01.38h-6.66v18.79c0,.42-.15.76-.44,1.04-.29.29-.65.44-1.07.44h0Zm23.19,0c-.42,0-.77-.15-1.07-.44-.27-.27-.41-.62-.41-1.04h0v-19.56c0-.6.2-1.11.6-1.53.42-.44.93-.66,1.53-.66h1.07c.44,0,.84.14,1.2.41.36.25.63.58.79.98h0l7.46,18.55,7.43-18.55c.18-.4.46-.73.82-.98.35-.27.74-.41,1.17-.41h1.09c.58,0,1.08.22,1.5.66.42.42.63.93.63,1.53h0v19.56c0,.42-.15.76-.44,1.04-.27.29-.62.44-1.04.44h0c-.42,0-.77-.15-1.07-.44-.29-.27-.44-.62-.44-1.04h0v-18.63l-7.57,18.74c-.18.4-.46.73-.85.98-.38.25-.8.38-1.26.38h0c-.46,0-.87-.13-1.26-.38-.38-.25-.66-.58-.85-.98h0l-7.57-18.74v18.63c0,.42-.15.76-.44,1.04-.31.29-.66.44-1.07.44h0Zm40.31.16c-2.29,0-4.31-.5-6.04-1.5-1.73-1-3.07-2.39-4.01-4.18-.93-1.77-1.42-3.8-1.47-6.09h0c.05-2.29.55-4.32,1.47-6.09.95-1.77,2.29-3.15,4.01-4.15,1.73-1.02,3.74-1.53,6.04-1.53h0c2.29,0,4.3.51,6.01,1.53,1.71,1,3.04,2.39,3.99,4.18.95,1.77,1.45,3.79,1.5,6.06h0c-.05,2.28-.56,4.31-1.5,6.09-.95,1.78-2.28,3.18-3.99,4.18-1.71,1-3.71,1.5-6.01,1.5h0Zm0-2.79c1.75,0,3.26-.39,4.53-1.17,1.29-.78,2.28-1.86,2.95-3.22.69-1.35,1.04-2.88,1.04-4.59h0c0-1.69-.35-3.22-1.04-4.59-.67-1.35-1.66-2.41-2.95-3.2-1.27-.8-2.79-1.2-4.53-1.2h0c-1.78,0-3.31.4-4.59,1.2-1.27.78-2.25,1.85-2.92,3.2-.67,1.37-1.01,2.9-1.01,4.59h0c0,1.71.34,3.24,1.01,4.59.67,1.37,1.65,2.44,2.92,3.22s2.8,1.17,4.59,1.17h0Zm17.94,2.46c-.42,0-.76-.15-1.04-.44-.29-.27-.44-.62-.44-1.04h0v-19.88c0-.42.15-.77.44-1.07.27-.31.62-.46,1.04-.46h6.58c2.49,0,4.62.56,6.36,1.67,1.73,1.11,3.03,2.54,3.91,4.29.87,1.75,1.31,3.58,1.31,5.49h0c0,1.93-.44,3.77-1.31,5.52-.87,1.75-2.18,3.17-3.91,4.26-1.75,1.11-3.87,1.67-6.36,1.67h-6.58Zm1.5-2.79h4.73c1.8,0,3.38-.36,4.73-1.09,1.35-.73,2.39-1.75,3.14-3.06.75-1.29,1.12-2.79,1.12-4.51h0c0-1.69-.37-3.2-1.12-4.51-.75-1.29-1.79-2.3-3.14-3.03-1.35-.75-2.92-1.12-4.73-1.12h-4.73v17.32Zm23.11,2.79c-.4,0-.75-.15-1.04-.44-.29-.27-.44-.62-.44-1.04h0v-19.88c0-.42.15-.77.44-1.07.29-.31.64-.46,1.04-.46h13.16c.38,0,.71.14.98.41.27.27.41.61.41,1.01h0c0,.4-.14.73-.41.98s-.6.38-.98.38h-11.64v7.27h10.43c.4,0,.74.14,1.01.41.27.27.41.6.41.98h0c0,.4-.14.73-.41.98-.27.27-.61.41-1.01.41h-10.43v7.27h11.64c.38,0,.71.14.98.41.27.27.41.61.41,1.01h0c0,.38-.14.71-.41.98-.27.25-.6.38-.98.38h-13.16Zm21.52,0c-.58,0-1.07-.2-1.47-.6-.4-.4-.6-.89-.6-1.47h0v-19.45c0-.42.15-.77.44-1.07.27-.31.62-.46,1.04-.46h0c.42,0,.77.15,1.07.46.29.29.44.65.44,1.07h0v18.55h10.73c.4,0,.76.15,1.07.44.29.29.44.65.44,1.07h0c0,.42-.15.76-.44,1.04-.31.29-.66.44-1.07.44h-11.64Z"/>
</svg>